PathFileType	4	(X/Y/Z)
DataRate	CameraRate	NumFrames	NumMarkers	Units	OrigDataRate	OrigDataStartFrame	OrigNumFrames	
	120.0	120.0	10	39	mm	120.0	107	142
Frame#	Time	midhip	hip_r	hip_l	knee_r	knee_l	ankle_r	ankle_l	midasis	asis_r	asis_l	psis_r	psis_l	epicondLat_r	epicondLat_l	epicondMed_r	epicondMed_l	malleolusLat_r	malleolusLat_l	malleolusMedv_r	malleolusMedv_l	heel_r	heel_l	sternalnotch	xyphoidprocess	neck	subclavicle_r	subclavicle_l	toe_r	toe_l	thighwand_r	thighwand_l	upperleg1_r	upperleg1_l	upperleg2_r	upperleg2_l	shankwand_r	shankwand_l	lowerleg1_r	lowerleg1_l
	X1	Y1	Z1	X2	Y2	Z2	X3	Y3	Z3	X4	Y4	Z4	X5	Y5	Z5	X6	Y6	Z6	X7	Y7	Z7	X8	Y8	Z8	X9	Y9	Z9	X10	Y10	Z10	X11	Y11	Z11	X12	Y12	Z12	X13	Y13	Z13	X14	Y14	Z14	X15	Y15	Z15	X16	Y16	Z16	X17	Y17	Z17	X18	Y18	Z18	X19	Y19	Z19	X20	Y20	Z20	X21	Y21	Z21	X22	Y22	Z22	X23	Y23	Z23	X24	Y24	Z24	X25	Y25	Z25	X26	Y26	Z26	X27	Y27	Z27	X28	Y28	Z28	X29	Y29	Z29	X30	Y30	Z30	X31	Y31	Z31	X32	Y32	Z32	X33	Y33	Z33	X34	Y34	Z34	X35	Y35	Z35	X36	Y36	Z36	X37	Y37	Z37	X38	Y38	Z38	X39	Y39	Z39

	107	0.89167	539.434	743.276	-263.411	530.967	745.069	-198.831	547.901	741.484	-327.992	479.988	406.529	-155.659	484.573	423.978	-352.896	511.695	66.827	-119.288	494.609	70.178	-390.769	611.848	809.535	-255.756	598.244	812.415	-151.992	625.452	806.655	-359.519	453.817	855.890	-244.158	456.609	854.010	-299.443	475.676	414.103	-101.354	483.224	428.506	-407.191	486.330	406.865	-207.630	489.694	399.859	-305.361	499.436	69.467	-83.947	484.391	73.677	-426.158	515.375	65.776	-141.891	497.837	66.400	-372.340	477.714	37.361	-143.861	437.197	41.284	-380.947	552.757	1172.054	-273.215	589.267	1093.096	-273.921	459.885	1218.995	-287.241	564.079	1171.737	-233.184	569.310	1177.099	-308.162	607.131	36.650	-84.968	595.903	38.873	-420.509	590.689	528.784	-56.230	659.424	525.839	-355.252	525.984	588.530	-97.792	598.401	597.531	-382.237	515.222	501.330	-106.046	573.900	513.092	-385.010	466.243	185.218	-21.290	490.435	205.578	-487.731	480.721	144.516	-91.823	478.746	158.242	-419.143
	108	0.90000	539.508	743.277	-263.415	531.051	745.066	-198.833	547.965	741.487	-327.997	480.026	406.535	-155.675	484.604	423.981	-352.904	511.694	66.820	-119.312	494.615	70.168	-390.771	611.932	809.525	-255.767	598.346	812.400	-152.016	625.518	806.651	-359.518	453.937	855.884	-244.176	456.702	854.030	-299.455	475.727	414.107	-101.369	483.260	428.508	-407.199	486.273	406.867	-207.641	489.725	399.874	-305.258	499.443	69.461	-83.968	484.402	73.667	-426.161	515.375	65.756	-141.910	497.859	66.377	-372.351	477.725	37.357	-143.865	437.194	41.292	-380.947	552.765	1172.031	-273.130	589.232	1093.053	-273.891	459.971	1219.000	-287.168	564.181	1171.723	-233.133	569.238	1177.053	-308.111	607.133	36.647	-84.972	595.909	38.865	-420.509	590.751	528.765	-56.254	659.471	525.799	-355.239	526.040	588.514	-97.813	598.467	597.529	-382.257	515.236	501.320	-106.065	573.928	513.002	-384.982	466.262	185.220	-21.299	490.452	205.581	-487.733	480.740	144.506	-91.845	478.755	158.249	-419.143
	109	0.90833	539.580	743.285	-263.420	531.130	745.068	-198.837	548.030	741.502	-328.002	480.056	406.552	-155.685	484.627	424.002	-352.912	511.684	66.829	-119.325	494.605	70.186	-390.774	612.010	809.528	-255.772	598.435	812.392	-152.023	625.585	806.664	-359.521	454.053	855.884	-244.189	456.794	854.046	-299.460	475.771	414.122	-101.377	483.290	428.529	-407.207	486.154	406.940	-207.654	489.667	399.964	-305.212	499.442	69.473	-83.978	484.395	73.686	-426.165	515.323	65.797	-141.936	497.854	66.400	-372.344	477.730	37.367	-143.867	437.196	41.304	-380.942	552.753	1172.045	-272.990	589.204	1093.060	-273.851	460.046	1219.019	-287.098	564.259	1171.726	-233.009	569.149	1177.072	-308.016	607.129	36.653	-84.969	595.899	38.884	-420.515	590.796	528.761	-56.268	659.499	525.782	-355.231	526.058	588.554	-97.798	598.557	597.561	-382.223	515.209	501.340	-106.069	573.934	513.008	-384.950	466.277	185.233	-21.301	490.459	205.600	-487.735	480.717	144.552	-91.825	478.716	158.305	-419.157
	110	0.91667	539.655	743.295	-263.423	531.209	745.070	-198.840	548.101	741.521	-328.007	480.085	406.575	-155.690	484.651	424.031	-352.916	511.671	66.849	-119.327	494.587	70.223	-390.774	612.088	809.535	-255.771	598.518	812.386	-152.015	625.657	806.684	-359.526	454.159	855.889	-244.198	456.888	854.058	-299.458	475.813	414.143	-101.381	483.319	428.557	-407.212	486.176	407.001	-207.636	489.445	400.143	-305.391	499.438	69.495	-83.978	484.380	73.723	-426.166	515.254	65.888	-141.955	497.821	66.457	-372.321	477.731	37.386	-143.868	437.201	41.319	-380.934	552.599	1172.092	-272.809	589.018	1093.095	-273.912	460.118	1219.053	-287.024	564.314	1171.743	-232.900	568.814	1177.135	-307.905	607.118	36.666	-84.958	595.884	38.915	-420.519	590.833	528.764	-56.275	659.518	525.776	-355.223	526.041	588.644	-97.774	598.629	597.643	-382.193	515.225	501.382	-106.055	573.899	513.153	-385.001	466.289	185.252	-21.300	490.460	205.629	-487.737	480.664	144.632	-91.773	478.651	158.398	-419.176
	111	0.92500	539.736	743.300	-263.429	531.290	745.066	-198.845	548.182	741.534	-328.013	480.118	406.593	-155.696	484.682	424.058	-352.917	511.659	66.866	-119.322	494.573	70.260	-390.771	612.172	809.535	-255.767	598.602	812.372	-152.001	625.741	806.699	-359.533	454.252	855.896	-244.201	456.984	854.065	-299.447	475.857	414.161	-101.386	483.351	428.583	-407.212	486.327	407.023	-207.633	489.507	400.168	-305.365	499.432	69.516	-83.971	484.367	73.762	-426.163	515.231	65.955	-141.955	497.799	66.501	-372.301	477.733	37.407	-143.868	437.208	41.332	-380.926	552.469	1172.121	-272.651	588.844	1093.108	-273.994	460.174	1219.095	-286.940	564.381	1171.737	-232.809	568.510	1177.183	-307.817	607.103	36.683	-84.941	595.873	38.940	-420.520	590.870	528.764	-56.280	659.535	525.769	-355.215	526.050	588.702	-97.755	598.632	597.679	-382.177	515.301	501.404	-106.046	573.930	513.214	-384.983	466.302	185.270	-21.295	490.462	205.656	-487.739	480.636	144.663	-91.717	478.624	158.462	-419.179
	112	0.93333	539.827	743.293	-263.440	531.377	745.050	-198.857	548.277	741.537	-328.024	480.157	406.600	-155.704	484.717	424.077	-352.915	511.649	66.874	-119.316	494.568	70.282	-390.764	612.265	809.524	-255.764	598.687	812.347	-151.987	625.842	806.702	-359.541	454.331	855.898	-244.200	457.079	854.064	-299.431	475.904	414.168	-101.394	483.387	428.600	-407.210	486.441	407.016	-207.653	489.672	400.082	-305.229	499.427	69.527	-83.963	484.361	73.784	-426.156	515.273	65.974	-141.940	497.813	66.505	-372.299	477.737	37.421	-143.865	437.214	41.337	-380.918	552.618	1172.114	-272.623	588.989	1093.100	-273.973	460.233	1219.134	-286.861	564.497	1171.709	-232.738	568.689	1177.194	-307.807	607.092	36.692	-84.924	595.869	38.949	-420.518	590.912	528.751	-56.285	659.553	525.754	-355.212	526.102	588.692	-97.750	598.631	597.638	-382.158	515.377	501.394	-106.052	573.984	513.158	-384.923	466.317	185.279	-21.290	490.469	205.671	-487.739	480.640	144.636	-91.693	478.640	158.476	-419.174
	113	0.94167	539.928	743.275	-263.457	531.471	745.023	-198.874	548.384	741.527	-328.040	480.198	406.591	-155.716	484.758	424.084	-352.911	511.638	66.867	-119.313	494.571	70.284	-390.757	612.366	809.503	-255.764	598.776	812.312	-151.976	625.956	806.694	-359.553	454.394	855.893	-244.195	457.170	854.056	-299.411	475.954	414.160	-101.405	483.426	428.605	-407.207	486.493	406.971	-207.667	489.633	400.057	-305.306	499.422	69.524	-83.958	484.363	73.787	-426.148	515.327	65.955	-141.928	497.837	66.489	-372.305	477.742	37.423	-143.863	437.219	41.331	-380.911	552.942	1172.085	-272.691	589.336	1093.079	-273.884	460.324	1219.144	-286.791	564.659	1171.685	-232.728	569.155	1177.166	-307.841	607.091	36.685	-84.915	595.872	38.941	-420.515	590.961	528.723	-56.295	659.574	525.730	-355.214	526.191	588.644	-97.781	598.661	597.593	-382.165	515.438	501.360	-106.071	573.998	513.138	-384.954	466.337	185.276	-21.289	490.481	205.671	-487.737	480.671	144.593	-91.723	478.665	158.466	-419.173
	114	0.95000	540.028	743.255	-263.478	531.562	744.996	-198.896	548.495	741.514	-328.060	480.238	406.572	-155.729	484.801	424.081	-352.908	511.623	66.850	-119.315	494.572	70.273	-390.752	612.470	809.478	-255.767	598.862	812.276	-151.966	626.077	806.679	-359.568	454.426	855.905	-244.195	457.255	854.042	-299.388	476.003	414.141	-101.417	483.465	428.599	-407.204	486.583	406.890	-207.679	489.404	400.111	-305.465	499.413	69.512	-83.958	484.362	73.776	-426.142	515.335	65.902	-141.929	497.822	66.468	-372.302	477.747	37.413	-143.863	437.223	41.315	-380.907	553.123	1172.053	-272.713	589.527	1093.050	-273.841	460.431	1219.113	-286.719	564.782	1171.661	-232.718	569.386	1177.130	-307.857	607.095	36.668	-84.912	595.876	38.928	-420.512	591.015	528.687	-56.310	659.594	525.704	-355.222	526.300	588.576	-97.833	598.866	597.455	-382.121	515.520	501.307	-106.100	574.046	513.104	-384.985	466.356	185.264	-21.291	490.494	205.660	-487.735	480.705	144.548	-91.757	478.693	158.424	-419.163
	115	0.95833	540.117	743.249	-263.501	531.637	744.986	-198.921	548.598	741.512	-328.081	480.271	406.553	-155.741	484.842	424.076	-352.905	511.599	66.834	-119.319	494.559	70.262	-390.751	612.568	809.459	-255.768	598.935	812.252	-151.952	626.201	806.667	-359.584	454.410	855.979	-244.214	457.338	854.029	-299.366	476.048	414.123	-101.428	483.502	428.592	-407.201	486.748	406.792	-207.684	489.332	400.105	-305.477	499.395	69.500	-83.961	484.346	73.767	-426.141	515.320	65.843	-141.931	497.788	66.440	-372.298	477.745	37.402	-143.865	437.224	41.294	-380.905	553.101	1172.022	-272.664	589.485	1093.011	-273.846	460.527	1219.062	-286.646	564.822	1171.628	-232.670	569.311	1177.095	-307.850	607.094	36.654	-84.914	595.869	38.929	-420.514	591.062	528.654	-56.324	659.607	525.691	-355.237	526.407	588.504	-97.884	599.088	597.312	-382.043	515.631	501.257	-106.122	574.144	513.016	-384.946	466.371	185.250	-21.297	490.501	205.648	-487.735	480.722	144.523	-91.750	478.722	158.369	-419.148
	116	0.96667	540.198	743.259	-263.523	531.699	744.995	-198.945	548.697	741.523	-328.101	480.298	406.542	-155.749	484.881	424.075	-352.901	511.567	66.825	-119.324	494.531	70.261	-390.753	612.660	809.454	-255.766	598.995	812.245	-151.935	626.326	806.662	-359.596	454.370	856.090	-244.245	457.421	854.023	-299.347	476.089	414.114	-101.435	483.536	428.587	-407.198	486.794	406.749	-207.666	489.476	400.006	-305.492	499.371	69.494	-83.963	484.316	73.769	-426.142	515.286	65.817	-141.931	497.780	66.413	-372.302	477.734	37.395	-143.870	437.222	41.274	-380.905	553.045	1172.016	-272.598	589.411	1092.998	-273.908	460.617	1219.034	-286.579	564.880	1171.607	-232.650	569.157	1177.097	-307.817	607.089	36.649	-84.920	595.851	38.950	-420.522	591.098	528.632	-56.335	659.612	525.698	-355.256	526.487	588.473	-97.920	599.093	597.303	-382.040	515.687	501.251	-106.129	574.207	512.980	-384.951	466.383	185.238	-21.305	490.499	205.642	-487.736	480.722	144.528	-91.740	478.719	158.355	-419.154
